<svg style="display: block;" width="31" height="31" viewBox="0 0 47 34" fill="none" xmlns="http://www.w3.org/2000/svg">
<g clip-path="url(#clip0)">
<path d="M42.5937 5.87497H4.40628C1.97651 5.87497 0 7.85148 0 10.2813V36.7187C0 39.1485 1.97651 41.125 4.40628 41.125H42.5937C45.0235 41.125 47 39.1485 47 36.7187V10.2813C47 7.85148 45.0235 5.87497 42.5937 5.87497ZM42.5937 8.81246C42.7933 8.81246 42.9831 8.85386 43.1567 8.92617L23.5 25.9627L3.84323 8.92617C4.01679 8.85396 4.20663 8.81246 4.40618 8.81246H42.5937ZM42.5937 38.1874H4.40628C3.5959 38.1874 2.93749 37.5291 2.93749 36.7186V12.0297L22.5375 29.0164C22.8144 29.2559 23.1572 29.375 23.5 29.375C23.8428 29.375 24.1856 29.256 24.4625 29.0164L44.0625 12.0297V36.7187C44.0624 37.5291 43.4041 38.1874 42.5937 38.1874Z" fill="white"/>
</g>
<defs>
<clipPath id="clip0">
<rect width="47" height="47" fill="white"/>
</clipPath>
</defs>
</svg>
