<svg style="display: block;" fill="#ffffff" xmlns="http://www.w3.org/2000/svg"  viewBox="0 0 16 12" width="28px" height="28px"><path fill="none" stroke="#ffffff" stroke-miterlimit="10" d="M3.5,13.5h8c1.105,0,2-0.895,2-2v-8c0-1.105-0.895-2-2-2h-8c-1.105,0-2,0.895-2,2v8C1.5,12.605,2.395,13.5,3.5,13.5z"/><path d="M9.904,13.091V8.966h1.397l0.209-1.608H9.904V6.332c0-0.466,0.131-0.783,0.804-0.783l0.858-0.001V4.11c-0.149-0.02-0.658-0.063-1.251-0.063c-1.238,0-2.085,0.749-2.085,2.125v1.186L7,7.354v1.608l1.23,0.004v4.126H9.904z"/></svg>