<svg width="37" height="37" viewBox="0 0 37 37" fill="none" xmlns="http://www.w3.org/2000/svg">
<g clip-path="url(#clip0)">
<path d="M0.0362701 10.8781C0.122948 8.91215 0.440865 7.56058 0.896282 6.38942C1.3661 5.14626 2.0889 4.03327 3.03588 3.10803C3.96111 2.16839 5.08145 1.43825 6.3102 0.975777C7.48814 0.520358 8.83265 0.20244 10.7986 0.115761C12.7792 0.0217404 13.408 0 18.4315 0C23.4549 0 24.0837 0.0217404 26.057 0.10842C28.0229 0.195099 29.3745 0.513299 30.5454 0.968436C31.7888 1.43825 32.9018 2.16105 33.827 3.10803C34.7667 4.03327 35.4965 5.1536 35.9593 6.38236C36.4147 7.56058 36.7326 8.90481 36.8193 10.8708C36.9133 12.8514 36.9351 13.4802 36.9351 18.5036C36.9351 23.5271 36.9133 24.1558 36.8266 26.1291C36.74 28.0951 36.4218 29.4467 35.9663 30.6178C35.4965 31.861 34.7667 32.974 33.827 33.8992C32.9018 34.8388 31.7815 35.569 30.5527 36.0315C29.3745 36.4869 28.0303 36.8048 26.064 36.8915C24.091 36.9784 23.462 36.9999 18.4385 36.9999C13.4151 36.9999 12.7863 36.9784 10.813 36.8915C8.84705 36.8048 7.49548 36.4869 6.3246 36.0315C3.83801 35.0701 1.87206 33.1041 0.910683 30.6178C0.455547 29.4396 0.137348 28.0951 0.0506668 26.1291C-0.0360107 24.1558 -0.0577507 23.5271 -0.0577507 18.5036C-0.0577507 13.4802 -0.0504112 12.8514 0.0362701 10.8781ZM3.36819 25.9846C3.44781 27.7916 3.75133 28.7673 4.00431 29.4179C4.62603 31.0298 5.90532 32.309 7.51722 32.9308C8.16774 33.1837 9.15057 33.4873 10.9505 33.5666C12.9021 33.6536 13.4874 33.675 18.4241 33.675C23.3609 33.675 23.9535 33.6536 25.898 33.5666C27.705 33.4873 28.6808 33.1837 29.3313 32.9308C30.1334 32.6343 30.8636 32.1645 31.4562 31.5501C32.0706 30.9501 32.5404 30.2273 32.8369 29.4252C33.0898 28.7747 33.3934 27.7916 33.4727 25.9919C33.5597 24.0404 33.5811 23.4548 33.5811 18.518C33.5811 13.5813 33.5597 12.9886 33.4727 11.0444C33.3934 9.23741 33.0898 8.26163 32.8369 7.61111C32.5404 6.8087 32.0706 6.07884 31.4489 5.48592C30.8492 4.87154 30.1264 4.40172 29.3239 4.10555C28.6734 3.85257 27.6903 3.54905 25.8907 3.46943C23.9391 3.38275 23.3535 3.36101 18.4171 3.36101C13.473 3.36101 12.8877 3.38275 10.9432 3.46943C9.13617 3.54905 8.16039 3.85257 7.50988 4.10555C6.70774 4.40172 5.9776 4.87154 5.38497 5.48592C4.77059 6.0859 4.30077 6.8087 4.00431 7.61111C3.75133 8.26163 3.44781 9.24447 3.36819 11.0444C3.28151 12.996 3.25977 13.5813 3.25977 18.518C3.25977 23.4548 3.28151 24.033 3.36819 25.9846Z" fill="white"/>
<path d="M18.4314 8.99881C23.6787 8.99881 27.9362 13.256 27.9362 18.5036C27.9362 23.7512 23.6787 28.0084 18.4314 28.0084C13.1838 28.0084 8.92659 23.7512 8.92659 18.5036C8.92659 13.256 13.1838 8.99881 18.4314 8.99881ZM18.4314 24.6691C21.8356 24.6691 24.5969 21.9081 24.5969 18.5036C24.5969 15.0991 21.8356 12.3381 18.4314 12.3381C15.0269 12.3381 12.2659 15.0991 12.2659 18.5036C12.2659 21.9081 15.0269 24.6691 18.4314 24.6691Z" fill="white"/>
<path d="M6.33161 8.62302C6.33161 9.84839 7.32518 10.842 8.55084 10.842C9.77621 10.842 10.7698 9.84839 10.7698 8.62302C10.7698 7.39737 9.77621 6.40408 8.55084 6.40408C7.32518 6.40408 6.33161 7.39737 6.33161 8.62302Z" fill="white"/>
</g>
<defs>
<clipPath id="clip0">
<rect width="37" height="37" fill="white" transform="matrix(-1 0 0 1 37 0)"/>
</clipPath>
</defs>
</svg>
