<?xml version="1.0" encoding="UTF-8"?>
<svg width="77px" height="55px" viewBox="0 0 77 55" version="1.1" xmlns="http://www.w3.org/2000/svg" xmlns:xlink="http://www.w3.org/1999/xlink">
    <!-- Generator: Sketch 60.1 (88133) - https://sketch.com -->
    <title>logo</title>
    <desc>Created with Sketch.</desc>
    <defs>
        <path d="M2,0 L14,0 C15.1046,0 16,0.8954 16,2 L16,18.7475 C16,19.852 15.1046,20.7475 14,20.7475 C13.4294,20.7475 12.886,20.5038 12.5065,20.0777 L9.4935,16.6948 C8.7588,15.87 7.4946,15.7969 6.6698,16.5315 C6.6123,16.5828 6.5577,16.6373 6.5065,16.6948 L3.4935,20.0777 C2.7588,20.9025 1.4946,20.9756 0.6698,20.241 C0.2437,19.8615 0,19.318 0,18.7475 L0,2 C0,0.8954 0.8954,0 2,0 Z" id="path-1"></path>
    </defs>
    <g id="Page-1" stroke="none" stroke-width="1" fill="none" fill-rule="evenodd">
        <g id="logo" transform="translate(2.000000, 1.000000)">
            <g id="Clipped">
                <path d="M43.4253448,1.5 L8.03625144,1.5 C3.61797344,1.5 0.0362514416,5.081722 0.0362514416,9.5 L0.0362514416,10.5 C0.0362514416,14.918278 3.61797344,18.5 8.03625144,18.5 L43.4253448,18.5 L43.4253448,18.5" id="Path-2" stroke="#979797" stroke-width="3" stroke-linecap="round" stroke-linejoin="round"></path>
                <rect id="Rectangle" fill="#E24343" x="29" y="0" width="16" height="3" rx="1"></rect>
                <rect id="Rectangle" fill="#E24343" x="29" y="17" width="16" height="3" rx="1"></rect>
            </g>
            <g id="Clipped" transform="translate(49.000000, 1.000000)">
                <path d="M1.5,17.5 L1.5,6.5 C1.5,2.91014913 4.41014913,6.59444907e-16 8,0 C11.5898509,-6.59444907e-16 14.5,2.91014913 14.5,6.5 L14.5,17.5 L14.5,17.5" id="Path-4" stroke="#979797" stroke-width="3" stroke-linecap="round" stroke-linejoin="round"></path>
                <rect id="Rectangle" fill="#E42C2C" x="0" y="7" width="3" height="12" rx="1"></rect>
                <rect id="Rectangle" fill="#E42C2C" x="13" y="7" width="3" height="12" rx="1"></rect>
            </g>
            <g id="Clipped" transform="translate(69.000000, 4.000000)" fill="#E24343">
                <rect id="Rectangle" transform="translate(2.000000, 8.500000) rotate(-270.000000) translate(-2.000000, -8.500000) " x="-6" y="7" width="16" height="3" rx="1"></rect>
            </g>
            <g id="Clipped" transform="translate(69.000000, 0.000000)" fill="#DF1E1E">
                <circle id="Oval" cx="2" cy="2" r="2"></circle>
            </g>
            <g id="Clipped" transform="translate(0.000000, 24.000000)">
                <path d="M73.4288692,1.5 L8,1.5 C3.581722,1.5 -5.41083001e-16,5.081722 0,9.5 L0,10.5 C5.41083001e-16,14.918278 3.581722,18.5 8,18.5 L73.4288692,18.5 L73.4288692,18.5" id="Path-3" stroke="#979797" stroke-width="3" stroke-linecap="round" stroke-linejoin="round"></path>
                <rect id="Rectangle" fill="#E24343" x="59" y="0" width="16" height="3" rx="1"></rect>
                <rect id="Rectangle" fill="#E24343" x="59" y="17" width="16" height="3" rx="1"></rect>
            </g>
            <g id="Clipped" transform="translate(13.000000, 33.000000)">
                <mask id="mask-2" fill="white">
                    <use xlink:href="#path-1"></use>
                </mask>
                <g id="Path"></g>
                <path d="M2,0 L14,0 C15.1046,0 16,0.8954 16,2 L16,18.7475 C16,19.852 15.1046,20.7475 14,20.7475 C13.4294,20.7475 12.886,20.5038 12.5065,20.0777 L9.4935,16.6948 C8.7588,15.87 7.4946,15.7969 6.6698,16.5315 C6.6123,16.5828 6.5577,16.6373 6.5065,16.6948 L3.4935,20.0777 C2.7588,20.9025 1.4946,20.9756 0.6698,20.241 C0.2437,19.8615 0,19.318 0,18.7475 L0,2 C0,0.8954 0.8954,0 2,0 Z" id="Path" fill="#000000" mask="url(#mask-2)"></path>
            </g>
            <g id="Bookmark" transform="translate(13.000000, 33.000000)" fill="currentColor">
                <path d="M2,0 L14,0 C15.1045695,-2.02906125e-16 16,0.8954305 16,2 L16,18.6812869 C16,19.7858564 15.1045695,20.6812869 14,20.6812869 C13.4415642,20.6812869 12.9085604,20.4478118 12.5299259,20.0373408 L9.47007412,16.7202094 C8.72114626,15.9083098 7.45584566,15.8572612 6.64394614,16.6061891 C6.60442208,16.6426476 6.56638442,16.6806853 6.52992588,16.7202094 L3.47007412,20.0373408 C2.72114626,20.8492403 1.45584566,20.9002889 0.643946141,20.1513611 C0.233475117,19.7727265 -1.53655941e-16,19.2397228 0,18.6812869 L0,2 C-1.3527075e-16,0.8954305 0.8954305,2.02906125e-16 2,0 Z"></path>
            </g>
        </g>
    </g>
</svg>