<?xml version="1.0" encoding="UTF-8"?>
<svg width="47px" height="60px" viewBox="0 0 47 60" version="1.1" xmlns="http://www.w3.org/2000/svg" xmlns:xlink="http://www.w3.org/1999/xlink">
    <!-- Generator: Sketch 60.1 (88133) - https://sketch.com -->
    <title>UniU</title>
    <g id="Appicon-v2" stroke="none" stroke-width="1" fill="none" fill-rule="evenodd">
        <g id="small" transform="translate(-514.000000, -378.000000)" fill="#FFFFFF">
            <g id="playstore_appicon" transform="translate(56.000000, 370.000000)">
                <g id="Group-2" transform="translate(93.866667, 7.733333)">
                    <g id="Group-3" transform="translate(364.133333, 0.266667)">
                        <circle id="Oval" cx="42.5" cy="4.5" r="4.5"></circle>
                        <path d="M4.30132113,0 C4.30132113,0 4.30132113,0 4.30132113,0 C4.31636798,0 4.31636798,0 6.38478152,0 C12.5417869,0 16.204901,4.46062327 24.3876229,20.6074527 C26.4620643,24.7009136 28.4016348,28.551045 30.2063343,32.1578469 C31.2171919,34.1782372 33.674525,34.996562 35.6948893,33.9856524 C37.0801312,33.2925327 37.9550491,31.8764298 37.9550491,30.3274592 L37.9550491,17.324368 C37.9550491,14.8266738 39.9798304,12.8018926 42.4775246,12.8018926 C44.9752188,12.8018926 47,14.8266738 47,17.324368 L47,38.6505683 L47,38.6505683 C46.5195773,52.8835228 38.686244,60 23.5,60 C8.31375602,60 0.480422687,52.8835228 0,38.6505683 L0,4.30132113 C-2.90921468e-16,1.92576706 1.92576706,4.36382202e-16 4.30132113,0 Z" id="Path-2"></path>
                    </g>
                </g>
            </g>
        </g>
    </g>
</svg>